<?xml version="1.0" encoding="UTF-8"?>
<svg id="Capa_2" data-name="Capa 2" xmlns="http://www.w3.org/2000/svg" viewBox="0 0 546.27 230.43">
  <g id="Capa_1-2" data-name="Capa 1">
    <g>
      <path d="M273.52,.01c84.71,0,169.42,0,254.13,0,7.46,0,13.65,2.28,17.19,9.47,1.28,2.61,1.44,5.36,1.44,8.17,0,53.82,0,107.65,0,161.47,0,2.16,0,4.31-.43,6.47-1.27,6.39-5.51,9.91-11.34,11.83-2.4,.79-4.95,.89-7.5,.89-36.85-.03-73.69-.02-110.54-.02-1.17,0-2.35,0-3.52,0-4.69,.01-4.67,0-2.71,4.11,.97,2.03,1.94,4.05,2.37,6.31,1.02,5.34-1.38,11.17-6.23,13.56-5.58,2.74-11.23,5.46-17.09,7.48-6.26,2.16-13.25-.85-16.19-7.71-3.05-7.12-6.21-14.21-9.16-21.37-.75-1.83-1.79-2.57-3.66-2.38-.18,.02-.36,.02-.54,0-5.43-.56-9.82,.68-14.06,4.83-6.9,6.74-15.45,5.05-20.42-3.17-.72-1.18-1.53-1.67-2.8-1.66-1.63,.01-3.25,0-4.88,0-98.44,0-196.87,0-295.31,0-2.8,0-5.58-.12-8.37-.48-8.15-1.06-13.7-7.12-13.84-15.39-.09-5.24-.03-10.48-.03-15.71,0-49.94,0-99.88,0-149.82,0-7.47,3.35-12.88,9.78-15.36C13.02,.27,16.46,0,19.93,0c84.53,.02,169.06,.02,253.59,.01Zm-.21,9.69c-83.8,0-167.6,0-251.4,0-2.35,0-4.7-.02-7.04,.05-3.2,.1-5.21,1.98-5.53,5.16-.11,1.07-.07,2.16-.07,3.25,0,53.55,0,107.1,0,160.65,0,8.88,.88,9.76,9.72,9.76,99.96,0,199.93,0,299.89,0q4.68,0,4.68-4.81c0-33.23,.02-66.46-.03-99.69,0-3.27,1.13-5.94,3.14-8.37,4.11-4.97,13.45-6.49,19.52-.29,3.35,3.42,6.87,6.66,10.36,9.93,11.52,10.8,23.06,21.57,34.61,32.35,3.23,3.02,6.52,5.97,9.74,8.99,8.35,7.85,16.72,15.67,24.98,23.61,3.44,3.31,4.31,9.85,2.14,14.06-2.73,5.31-7.24,7.55-12.63,7.79-5.14,.23-10.14,1.73-15.33,1.33-1.75-.14-2.4,.52-1.74,2.48,1.07,3.18,2.97,5.97,4.08,9.1,.96,2.7,2.56,3.59,5.47,3.58,37.84-.1,75.67-.06,113.51-.06,3.34,0,6.68-.03,10.02-.03,2.86,0,4.56-1.56,5.26-4.18,.34-1.28,.39-2.68,.39-4.02,.02-54.09,.01-108.18,0-162.27,0-.99,.02-1.99-.11-2.97-.46-3.43-2.53-5.27-5.99-5.35-2.35-.05-4.7-.04-7.04-.04-83.53,0-167.06,0-250.59,0Zm63.73,75.45c-.72,1.1-.46,2.02-.46,2.89-.02,33.76-.01,67.51-.01,101.27,0,.54,0,1.08,.02,1.62,.05,1.36,.46,1.91,1.78,.9,2.01-1.53,3.95-3.12,5.72-4.95,5.89-6.1,12.08-11.87,18.55-17.35,1.07-.91,1.92-1.16,2.65,.55,3.39,7.93,6.91,15.8,10.32,23.71,3.09,7.16,6.08,14.36,9.12,21.54,.4,.95,.74,1.85,2.15,1.19,3.58-1.68,7.21-3.26,10.83-4.86,1.31-.58,1.73-1.25,.97-2.7-1.54-2.94-2.9-5.99-4.29-9-3.46-7.5-6.92-14.99-10.34-22.51-1.93-4.25-3.76-8.54-5.69-12.8-.68-1.5-.47-2.63,1.31-2.63,2.82,0,5.54-1,8.24-1.01,5.88-.04,11.63-.97,17.43-1.61,2.5-.27,5.06,.18,7.52-.64,.56-.19,1.44,.1,1.58-.71,.11-.66-.57-1.08-1.03-1.49-2.02-1.79-4.12-3.49-6.09-5.34-12.64-11.82-25.19-23.72-37.91-35.45-8.07-7.45-16.01-15.08-24-22.63-2.79-2.63-5.55-5.29-8.38-8Z"/>
      <path d="M28.22,101.39c0-18.42-.01-36.84,0-55.27,0-5.72,1.37-7.43,6.94-7.73,14.69-.8,29.4-.66,44.1-.07,6.36,.25,12.51,1.39,18.41,3.71,7.85,3.08,14.69,7.64,20.2,14.09,2.05,2.4,2.57,2.47,4.47,.01,7.78-10.1,18.23-16.09,30.43-18.81,4.45-.99,9.09-1.73,13.91-1.38,3.62,.26,7.27,.32,10.94,.71,8.38,.9,15.79,4.05,22.86,8.4,4.22,2.59,7.67,6,11,9.56,4.31,4.61,3.9,8.4-1.02,12.32-2.82,2.25-5.53,4.63-8.29,6.95-4.7,3.95-9.15,3.42-13.07-1.33-3.99-4.83-9.1-7.57-15.36-8.78-5.59-1.08-10.91-.94-16.24,.8-8.36,2.73-13.79,8.63-17.25,16.48-6.73,15.24-6.59,30.55,1.63,44.99,5.18,9.1,13.34,14.67,24.65,14.36,5.84-.16,11.52-.23,16.65-3.56,1.92-1.24,3.57-2.79,5.14-4.36,1.65-1.66,.86-4.14,1.02-6.25,.19-2.51-.15-5.05-.13-7.57,.02-1.93-.73-2.81-2.72-2.78-3.61,.05-7.22-.13-10.83-.02-6.89,.2-11.48-2.53-10.49-10.36,.45-3.54-.76-7.15,.01-10.78,.83-3.89,3.25-6.35,7.22-6.37,13-.07,26.01-.07,39.01,0,4.12,.02,6.29,2.3,7.13,6.38,.73,3.55-.06,7.02-.07,10.52,0,9.93-.09,19.87,.05,29.8,.04,3.11-.7,5.7-2.45,8.32-6.79,10.1-15.95,17.08-27.29,21.18-5.25,1.9-10.68,3.14-16.4,2.95-7.46-.25-14.96,.51-22.31-1.64-10.03-2.94-18.72-7.94-25.71-15.78-1.37-1.54-2.78-3.92-4.39-4.11-1.76-.21-2.73,2.69-4.19,4.1-9.02,8.72-19.77,13.62-32.17,15.16-3.24,.4-6.46,.58-9.72,.58-12.46-.02-24.92,0-37.39-.01-5.61,0-8.27-2.65-8.28-8.33-.02-18.69,0-37.39-.01-56.08Zm28.15,.41c0,11.28,0,22.55,0,33.83,0,3.47,.18,3.63,3.71,3.65,4.87,.02,9.75-.15,14.61,.04,9.71,.38,17.65-3.08,23.5-10.81,3.31-4.38,5.8-9.18,7.16-14.67,1.27-5.13,.57-10.22,.88-15.31,.35-5.64-1.05-10.93-3.49-15.91-4.79-9.79-12.07-16.73-23.31-17.99-6.33-.71-12.78-.54-19.17-.62-3.39-.04-3.89,.58-3.89,3.98-.01,11.28,0,22.55,0,33.83Z"/>
      <path d="M288.32,113.6c0,14.9,0,29.8,0,44.69,0,5.2-2.57,7.89-7.74,7.98-4.6,.09-9.21,.09-13.81,0-4.07-.08-6.27-2.14-6.76-6.2-.21-1.79-.35-3.59-.36-5.39-.02-28.53-.02-57.06-.03-85.6,0-4.06-.05-4.09-4.07-4.11-7.3-.04-14.61,.03-21.91-.21-2.11-.07-4.28-.56-6.36-1.02-2.23-.5-3.42-2.35-3.63-4.59-.49-5.3-.65-10.61-.02-15.91,.38-3.17,2.39-4.92,5.58-5.29,4.13-.49,8.27-.58,12.42-.57,22.48,.03,44.97,.02,67.45,0,3.25,0,6.48,.09,9.71,.53,3.08,.42,5.61,2.66,5.7,5.83,.15,4.96,.15,9.93,0,14.89-.09,2.96-2.29,4.9-5.13,5.37-9.49,1.54-19.03,.99-28.55,.74-2.62-.07-2.5,1.4-2.5,3.08,0,11.83,0,23.66,0,35.48,0,3.43,0,6.86,0,10.29Z"/>
      <path d="M446.45,101.93c0-19.14-.01-38.27,0-57.41,0-5,1-6.36,5.94-6.89,5.93-.65,11.9-.36,17.81,.48,2.33,.33,4.17,2.75,4.43,5.53,.14,1.52,.09,3.07,.09,4.6,0,28.97,0,57.95,0,86.92,0,4.02,.01,4.03,4.06,4.04,13.45,0,26.9,0,40.35,.01,5.69,0,8.18,2.53,8.2,8.26,0,3.79,.04,7.58-.01,11.37-.05,4.55-2.87,7.43-7.46,7.44-22.38,.04-44.77,.04-67.15,0-4.23,0-6.25-2.11-6.25-6.4-.03-19.32-.01-38.63-.01-57.95Z"/>
    </g>
  </g>
</svg>